<?xml version="1.0" standalone="no"?>
<!DOCTYPE svg PUBLIC "-//W3C//DTD SVG 20010904//EN"
 "http://www.w3.org/TR/2001/REC-SVG-20010904/DTD/svg10.dtd">
<svg version="1.0" xmlns="http://www.w3.org/2000/svg"
 width="511.000000pt" height="511.000000pt" viewBox="0 0 511.000000 511.000000"
 preserveAspectRatio="xMidYMid meet">
<metadata>
Created by potrace 1.11, written by Peter Selinger 2001-2013
</metadata>
<g transform="translate(0.000000,511.000000) scale(0.100000,-0.100000)"
fill="#000000" stroke="none">
<path d="M2180 5094 c-46 -20 -68 -41 -94 -89 -19 -37 -21 -55 -21 -238 l0
-199 28 -24 c15 -13 36 -24 47 -24 17 0 17 -3 4 -57 -41 -175 -48 -238 -48
-448 1 -166 5 -235 22 -331 29 -171 19 -206 -95 -314 -37 -36 -109 -100 -159
-142 -263 -222 -383 -415 -429 -695 -14 -87 -16 -221 -13 -1168 l3 -1070 32
-68 c39 -82 115 -160 193 -196 l55 -26 832 -3 c822 -2 832 -2 887 19 110 41
201 138 240 255 15 47 16 144 13 1160 -3 1106 -3 1109 -25 1187 -70 251 -182
408 -456 641 -235 200 -249 229 -209 441 13 67 17 146 17 310 0 221 -8 304
-48 453 -13 49 -13 52 4 52 11 0 32 11 47 24 l28 24 0 194 c0 106 -3 205 -7
220 -12 40 -57 89 -103 109 -36 17 -71 19 -375 18 -276 0 -341 -2 -370 -15z
m615 -3134 c88 -28 135 -52 180 -92 77 -67 82 -131 16 -197 -205 -205 -824
-167 -918 56 -34 83 52 174 215 227 88 29 141 35 292 32 117 -3 159 -8 215
-26z"/>
<path d="M2335 1896 c-86 -37 -99 -190 -21 -241 35 -23 93 -29 144 -16 l42 12
0 59 0 60 -50 0 c-38 0 -50 -4 -50 -15 0 -10 11 -15 35 -15 33 0 35 -2 35 -34
0 -38 -12 -46 -66 -46 -71 0 -110 50 -101 129 9 83 89 117 165 71 l32 -20 0
24 c0 18 -8 27 -31 35 -42 15 -97 13 -134 -3z"/>
<path d="M2570 1765 c0 -113 2 -135 15 -135 11 0 15 11 15 43 0 30 6 49 19 61
10 10 21 13 22 8 2 -6 26 -33 52 -62 32 -34 55 -50 68 -48 17 3 10 14 -41 72
l-62 69 63 63 c57 58 61 64 39 64 -18 0 -43 -20 -92 -72 l-67 -73 -1 73 c0 57
-3 72 -15 72 -13 0 -15 -22 -15 -135z"/>
</g>
</svg>
